<svg viewBox="0 0 1167 600" xmlns="http://www.w3.org/2000/svg">

    <g id="Layer_1" style="
    fill:var(--navy);
">


        <path id="XMLID_8608_" style="fill:var(--navy);"
            d="M680.867,257.662c-0.583-4.868-5.002-8.342-9.87-7.758   c-1.664,0.199-3.159,0.855-4.391,1.816c-1.48-1.122-3.377-1.698-5.367-1.46c-2.426,0.291-4.431,1.725-5.558,3.694   c-1.446-2.479-4.267-3.998-7.298-3.635c-3.678,0.441-6.395,3.501-6.528,7.09c-1.326-1.705-3.481-2.698-5.782-2.423   c-1.341,0.161-2.533,0.73-3.471,1.566c-1.671-2.384-4.564-3.795-7.656-3.425c-3.638,0.436-6.428,3.202-7.057,6.626   c-1.742-1.388-4.016-2.107-6.402-1.822c-1.895,0.227-3.566,1.059-4.859,2.271c-2.167-2.201-5.286-3.419-8.59-3.023   c-5.666,0.679-9.708,5.822-9.03,11.488c0.277,2.314,0.797,4.661,3.376,6.688c0.008,0.09-0.678-0.346-3.994,0.051   c-5.106,0.612-8.749,5.247-8.137,10.352c0.612,5.106,5.246,8.749,10.352,8.137c5.106-0.612,8.749-5.246,8.137-10.352   c-0.019-0.16-0.054-0.314-0.081-0.471c1.723,1.316,3.938,1.992,6.26,1.714c3.524-0.422,6.293-2.914,7.244-6.112   c1.21,2.219,3.682,3.595,6.344,3.276c1.938-0.232,3.565-1.313,4.56-2.825c1.672,3.901,5.759,6.409,10.187,5.878   c4.753-0.569,8.299-4.447,8.621-9.052c1.219,2.192,3.676,3.546,6.321,3.229c1.583-0.19,2.955-0.948,3.949-2.042   c1.542,1.426,3.674,2.195,5.923,1.925c2.965-0.355,5.304-2.415,6.172-5.08c1.271,0.652,2.743,0.946,4.268,0.763   c3.878-0.465,6.691-3.84,6.53-7.677C678.858,265.708,681.37,261.855,680.867,257.662z">
        </path>
        <path id="XMLID_8607_" style="fill:var(--navy);"
            d="M320.82,287.542c-4.019,0.314-7.291,2.955-8.624,6.494   c-1.562-1.044-3.469-1.597-5.488-1.439c-4.474,0.35-7.889,4.037-7.993,8.429c-0.683-0.198-1.41-0.286-2.162-0.227   c-3.338,0.261-5.833,3.179-5.572,6.517c0.261,3.338,3.179,5.833,6.517,5.572c2.56-0.2,4.618-1.965,5.324-4.281   c1.514,0.94,3.325,1.431,5.238,1.281c3.1-0.242,5.684-2.092,7.018-4.663c1.956,1.667,4.546,2.591,7.31,2.374   c5.539-0.433,9.677-5.274,9.244-10.813C331.2,291.247,326.359,287.108,320.82,287.542z">
        </path>
        <path id="XMLID_8606_" style="fill:var(--navy);"
            d="M277.965,287.542c-4.019,0.314-7.291,2.955-8.624,6.494   c-1.562-1.044-3.469-1.597-5.487-1.439c-4.474,0.35-7.889,4.037-7.993,8.429c-0.683-0.198-1.41-0.286-2.162-0.227   c-3.338,0.261-5.833,3.179-5.572,6.517c0.261,3.338,3.179,5.833,6.517,5.572c2.56-0.2,4.618-1.965,5.324-4.281   c1.514,0.94,3.325,1.431,5.238,1.281c3.1-0.242,5.683-2.092,7.017-4.663c1.956,1.667,4.546,2.591,7.31,2.374   c5.538-0.433,9.677-5.274,9.244-10.813C288.345,291.247,283.504,287.108,277.965,287.542z">
        </path>
        <path id="XMLID_8605_" style="fill:var(--navy);"
            d="M235.11,287.542c-4.019,0.314-7.291,2.955-8.624,6.494   c-1.562-1.044-3.469-1.597-5.487-1.439c-4.475,0.35-7.889,4.037-7.993,8.429c-0.683-0.198-1.41-0.286-2.162-0.227   c-3.338,0.261-5.833,3.179-5.572,6.517c0.261,3.338,3.179,5.833,6.517,5.572c2.56-0.2,4.618-1.965,5.324-4.281   c1.514,0.94,3.325,1.431,5.238,1.281c3.1-0.242,5.684-2.092,7.018-4.663c1.956,1.667,4.546,2.591,7.31,2.374   c5.539-0.433,9.677-5.274,9.244-10.813C245.49,291.247,240.649,287.108,235.11,287.542z">
        </path>
        <polygon id="XMLID_8604_" style="fill:var(--navy);"
            points="603.486,366.828 562.937,366.828 562.459,387.174 603.759,387.174  "></polygon>
        <polygon id="XMLID_8603_" style="fill:var(--navy);"
            points="224.881,381.288 201.659,381.288 201.881,366.534 224.659,366.534  "></polygon>
        <polygon id="XMLID_8602_" style="fill:var(--navy);"
            points="265.857,381.288 242.636,381.288 242.858,366.534 265.636,366.534  "></polygon>
        <polygon id="XMLID_8601_" style="fill:var(--navy);"
            points="306.834,381.288 283.613,381.288 283.835,366.534 306.612,366.534  "></polygon>
        <path id="XMLID_8600_" style="fill:var(--navy);"
            d="M901.474,539.82L901.474,539.82c7.044,0,12.807-5.763,12.807-12.807v-69.582   c0-7.044-5.763-12.806-12.807-12.806h0c-7.044,0-12.807,5.763-12.807,12.806v69.582C888.668,534.057,894.431,539.82,901.474,539.82   z">
        </path>
        <path id="XMLID_8599_" style="fill:var(--navy);"
            d="M837.31,514.814v-58.83c0-7.044-5.763-12.807-12.807-12.807h0   c-7.044,0-12.807,5.763-12.807,12.807v58.83H837.31z">
        </path>
        <rect id="XMLID_8598_" x="445.689" y="479.29" style="fill:var(--navy);" width="79.732"
            height="35.193">
        </rect>
        <g id="XMLID_8589_" style="
    fill:var(--navy);
">
            <path id="XMLID_8595_" style="fill:var(--navy);"
                d="M877.383,261.087l0.018-6.076l-4.486-0.013c-0.271-2.018-0.787-4.001-1.544-5.82    l3.889-2.235l-3.028-5.268l-3.889,2.235c-1.263-1.673-2.588-2.989-4.251-4.264l2.247-3.882l-5.259-3.044l-2.247,3.882    c-1.853-0.776-3.759-1.292-5.82-1.562l0.005,0.001v-4.486h-6.076v4.486l0,0c-1.889,0.248-3.84,0.781-5.556,1.456l-2.2-3.909    l-5.295,2.98l2.2,3.909c-1.683,1.253-3.016,2.556-4.302,4.212l-3.862-2.282l-3.091,5.232l3.862,2.282    c-0.837,1.932-1.332,3.639-1.614,5.801l-4.486-0.041l-0.055,6.076l4.486,0.041c0.238,2.119,0.737,3.923,1.509,5.829l-3.903,2.212    l2.996,5.286l3.903-2.212c1.251,1.668,2.544,3.009,4.225,4.29l-2.27,3.869l5.241,3.075l2.27-3.869    c1.814,0.775,3.788,1.307,5.806,1.596l-0.027,4.486l6.076,0.037l0.027-4.486c1.99-0.26,4.028-0.79,5.826-1.523l2.222,3.893    l5.277-3.012l-2.223-3.896c1.636-1.244,3.023-2.604,4.277-4.238l3.876,2.259l3.059-5.25l-3.876-2.258    c0.769-1.818,1.297-3.79,1.579-5.811L877.383,261.087z M849.828,272.154c-7.794,0-14.112-6.318-14.112-14.113    c0-7.794,6.318-14.112,14.112-14.112c7.794,0,14.112,6.318,14.112,14.112C863.941,265.836,857.622,272.154,849.828,272.154z">
            </path>

            <ellipse id="XMLID_8594_"
                transform="matrix(0.1602 -0.9871 0.9871 0.1602 458.9896 1055.5623)"
                style="fill:var(--navy);" cx="849.828" cy="258.042" rx="14.113" ry="14.112"></ellipse>
            <path id="XMLID_8591_" style="fill:var(--navy);"
                d="M826.167,280.733l2.566-1.474l-1.997-3.475l-2.566,1.474    c-0.833-1.104-1.707-1.972-2.804-2.813l1.482-2.561l-3.469-2.008l-1.482,2.561c-1.222-0.512-2.48-0.852-3.839-1.03l0.003,0v-2.959    h-4.008v2.959l0,0c-1.246,0.163-2.533,0.515-3.665,0.96l-1.451-2.579l-3.493,1.966l1.451,2.579    c-1.111,0.826-1.989,1.686-2.838,2.779l-2.547-1.505l-2.039,3.451l2.548,1.505c-0.552,1.274-0.878,2.4-1.065,3.827l-2.959-0.027    l-0.036,4.008l2.959,0.027c0.157,1.398,0.486,2.588,0.995,3.845l-2.574,1.459l1.976,3.487l2.574-1.459    c0.825,1.101,1.678,1.985,2.787,2.83l-1.497,2.552l3.457,2.029l1.498-2.552c1.197,0.511,2.499,0.862,3.83,1.053l-0.018,2.959    l4.008,0.024l0.018-2.959c1.313-0.172,2.657-0.521,3.843-1.005l1.466,2.568l3.481-1.987l-1.467-2.57    c1.079-0.82,1.994-1.718,2.821-2.796l2.557,1.49l2.018-3.463l-2.557-1.49c0.507-1.199,0.855-2.5,1.042-3.833l2.959,0.009    l0.012-4.008l-2.959-0.009C827.007,283.241,826.667,281.933,826.167,280.733z M811.956,295.89c-5.141,0-9.309-4.168-9.309-9.309    c0-5.141,4.168-9.309,9.309-9.309c5.141,0,9.309,4.168,9.309,9.309C821.266,291.723,817.098,295.89,811.956,295.89z">
            </path>
            <circle id="XMLID_8590_" style="fill:var(--navy);" cx="811.956" cy="286.581" r="9.309"></circle>
        </g>
        <g id="XMLID_8584_" style="
    fill:var(--navy);
">
            <path id="XMLID_8586_" style="fill:var(--navy);"
                d="M447.278,324.218l0.013-4.145l-3.06-0.009c-0.185-1.377-0.537-2.73-1.053-3.97    l2.653-1.525l-2.065-3.594l-2.653,1.525c-0.862-1.141-1.765-2.039-2.9-2.909l1.533-2.648l-3.588-2.076l-1.533,2.648    c-1.264-0.529-2.564-0.881-3.97-1.066l0.003,0v-3.06h-4.145v3.06h0c-1.288,0.169-2.619,0.533-3.79,0.993l-1.5-2.667l-3.612,2.033    l1.501,2.667c-1.148,0.855-2.057,1.744-2.935,2.874l-2.634-1.557l-2.108,3.569l2.634,1.557c-0.571,1.318-0.908,2.482-1.101,3.957    l-3.06-0.028l-0.038,4.145l3.06,0.028c0.163,1.445,0.503,2.676,1.029,3.976l-2.662,1.509l2.044,3.606l2.662-1.509    c0.853,1.138,1.736,2.052,2.882,2.926l-1.549,2.639l3.575,2.098l1.549-2.639c1.237,0.529,2.584,0.891,3.96,1.089l-0.018,3.06    l4.145,0.025l0.018-3.06c1.358-0.178,2.748-0.539,3.974-1.039l1.516,2.656l3.6-2.054l-1.517-2.658    c1.116-0.849,2.062-1.776,2.917-2.891l2.644,1.541l2.087-3.581l-2.644-1.541c0.525-1.24,0.884-2.586,1.077-3.964L447.278,324.218z     M428.482,331.768c-5.317,0-9.627-4.31-9.627-9.627c0-5.317,4.31-9.627,9.627-9.627c5.317,0,9.627,4.31,9.627,9.627    C438.108,327.458,433.798,331.768,428.482,331.768z">
            </path>
            <path id="XMLID_8585_" style="fill:var(--navy);"
                d="M428.482,312.514c-5.317,0-9.627,4.31-9.627,9.627    c0,5.317,4.31,9.627,9.627,9.627c5.317,0,9.627-4.31,9.627-9.627C438.108,316.824,433.798,312.514,428.482,312.514z">
            </path>
        </g>
        <g id="XMLID_8582_" style="
    fill:var(--navy);
">
            <path id="XMLID_8583_" style="fill:var(--navy);"
                d="M525.117,208.163c1.291,2.133,2.582,4.266,3.873,6.4    c0.833,1.376,1.665,2.751,2.498,4.127c0.42,0.693,1.202,1.616,1.289,2.458c0.29,2.811-5.518,1.789-6.985,1.771    c-2.597-0.03-5.194-0.061-7.792-0.091c-2.176-0.025-2.174,3.348,0,3.373c3.03,0.035,6.059,0.071,9.089,0.106    c3.554,0.042,7.246,0.52,8.835-3.525c1.145-2.914-1.935-6.474-3.335-8.786c-1.52-2.511-3.04-5.023-4.56-7.534    C526.905,204.603,523.988,206.297,525.117,208.163L525.117,208.163z">
            </path>
        </g>
        <g id="XMLID_8580_" style="
    fill:var(--navy);
">
            <path id="XMLID_8581_" style="fill:var(--navy);"
                d="M504.016,203.454c1.288-2.062,2.575-4.123,3.863-6.185    c0.83-1.33,1.661-2.66,2.491-3.989c0.488-0.781,0.946-1.923,1.992-2.021c1.076-0.101,1.609,1.005,2.135,1.757    c0.854,1.222,1.709,2.443,2.563,3.665c1.458,2.085,2.917,4.17,4.375,6.255c1.237,1.768,4.162,0.085,2.912-1.702    c-1.644-2.351-3.288-4.702-4.932-7.053c-1.806-2.583-3.48-6.218-7.053-6.295c-3.393-0.073-5.02,3.876-6.528,6.292    c-1.577,2.525-3.154,5.049-4.73,7.574C499.948,203.602,502.867,205.294,504.016,203.454L504.016,203.454z">
            </path>
        </g>
        <g id="XMLID_8578_" style="
    fill:var(--navy);
">
            <path id="XMLID_8579_" style="fill:var(--navy);"
                d="M497.6,206.453c-1.52,2.511-3.04,5.023-4.56,7.534    c-1.569,2.592-4.185,5.567-3.335,8.786c1.089,4.124,5.598,3.563,8.835,3.525c3.03-0.035,6.059-0.071,9.089-0.106    c2.174-0.025,2.176-3.398,0-3.373c-2.597,0.03-5.194,0.061-7.792,0.091c-1.478,0.017-2.956,0.035-4.435,0.052    c-1.275,0.015-2.518-0.193-2.551-1.823c-0.014-0.702,0.831-1.701,1.168-2.257c0.873-1.443,1.746-2.885,2.619-4.327    c1.291-2.133,2.582-4.266,3.874-6.4C501.641,206.29,498.724,204.595,497.6,206.453L497.6,206.453z">
            </path>
        </g>
        <g id="XMLID_8574_">
            <path id="XMLID_8575_"
                d="M429.628,587.06H326.018c-1.014,0-1.836-0.822-1.836-1.836V405.167c0-0.707,0.405-1.35,1.043-1.656    l103.611-49.637c0.569-0.272,1.238-0.234,1.772,0.102c0.534,0.336,0.858,0.923,0.858,1.554v229.694    C431.464,586.238,430.642,587.06,429.628,587.06z M327.854,583.388h99.939V358.445l-99.939,47.878V583.388z">
            </path>
        </g>
        <g id="XMLID_8570_">
            <path id="XMLID_8571_"
                d="M533.239,587.06H429.628c-1.014,0-1.836-0.822-1.836-1.836V405.167c0-0.707,0.405-1.35,1.043-1.656    l103.61-49.637c0.569-0.272,1.238-0.234,1.772,0.102c0.534,0.336,0.857,0.923,0.857,1.554v229.694    C535.075,586.238,534.253,587.06,533.239,587.06z M431.464,583.388h99.939V358.445l-99.939,47.878V583.388z">
            </path>
        </g>
        <g id="XMLID_8566_">
            <path id="XMLID_8567_"
                d="M319.449,587.103H184.725c-1.014,0-1.836-0.822-1.836-1.836V512.72c0-1.014,0.822-1.836,1.836-1.836    h134.724c1.014,0,1.836,0.822,1.836,1.836v72.547C321.285,586.281,320.463,587.103,319.449,587.103z M186.561,583.431h131.052    v-68.875H186.561V583.431z">
            </path>
        </g>
        <g id="XMLID_8562_">
            <path id="XMLID_8563_"
                d="M224.257,514.556h-27.254c-0.492,0-0.963-0.197-1.308-0.548c-0.345-0.35-0.535-0.824-0.528-1.316    l2.899-192.798c0.015-1.003,0.833-1.808,1.836-1.808h21.455c1.003,0,1.82,0.805,1.836,1.808l2.899,192.798    c0.007,0.492-0.183,0.966-0.528,1.316C225.22,514.359,224.749,514.556,224.257,514.556z M198.867,510.884h23.526l-2.844-189.126    h-17.838L198.867,510.884z">
            </path>
        </g>
        <g id="XMLID_8558_">
            <path id="XMLID_8559_"
                d="M222.241,380.484H199.02c-0.492,0-0.963-0.197-1.308-0.547c-0.345-0.35-0.535-0.824-0.528-1.316    l0.222-14.753c0.015-1.003,0.832-1.808,1.836-1.808h22.777c1.003,0,1.821,0.805,1.836,1.808l0.222,14.753    c0.007,0.492-0.183,0.966-0.528,1.316C223.204,380.287,222.733,380.484,222.241,380.484z M200.884,376.812h19.493l-0.167-11.081    h-19.16L200.884,376.812z">
            </path>
        </g>
        <g id="XMLID_8554_">
            <path id="XMLID_8555_"
                d="M265.234,514.556h-27.253c-0.492,0-0.963-0.197-1.308-0.548c-0.345-0.35-0.535-0.824-0.528-1.316    l2.899-192.798c0.015-1.003,0.832-1.808,1.836-1.808h21.455c1.003,0,1.821,0.805,1.836,1.808l2.899,192.798    c0.007,0.492-0.183,0.966-0.528,1.316C266.197,514.359,265.726,514.556,265.234,514.556z M239.845,510.884h23.526l-2.844-189.126    h-17.838L239.845,510.884z">
            </path>
        </g>
        <g id="XMLID_8550_">
            <path id="XMLID_8551_"
                d="M263.218,380.484h-23.221c-0.492,0-0.963-0.197-1.308-0.547c-0.345-0.35-0.535-0.825-0.528-1.316    l0.222-14.753c0.015-1.003,0.832-1.808,1.836-1.808h22.777c1.003,0,1.82,0.805,1.836,1.808l0.222,14.753    c0.007,0.492-0.183,0.966-0.528,1.316C264.181,380.287,263.71,380.484,263.218,380.484z M241.861,376.812h19.493l-0.166-11.081    h-19.16L241.861,376.812z">
            </path>
        </g>
        <g id="XMLID_8546_">
            <path id="XMLID_8547_"
                d="M306.211,514.556h-27.253c-0.492,0-0.963-0.197-1.308-0.548c-0.345-0.35-0.535-0.824-0.528-1.316    l2.899-192.798c0.015-1.003,0.832-1.808,1.836-1.808h21.455c1.003,0,1.821,0.805,1.836,1.808l2.899,192.798    c0.007,0.492-0.183,0.966-0.528,1.316C307.174,514.359,306.703,514.556,306.211,514.556z M280.821,510.884h23.526l-2.844-189.126    h-17.838L280.821,510.884z">
            </path>
        </g>
        <g id="XMLID_8542_">
            <path id="XMLID_8543_"
                d="M304.195,380.484h-23.221c-0.492,0-0.963-0.197-1.308-0.547c-0.345-0.35-0.535-0.824-0.528-1.316    l0.222-14.753c0.015-1.003,0.832-1.808,1.836-1.808h22.777c1.003,0,1.821,0.805,1.836,1.808l0.222,14.753    c0.007,0.492-0.183,0.966-0.528,1.316C305.158,380.287,304.687,380.484,304.195,380.484z M282.838,376.812h19.493l-0.167-11.081    h-19.16L282.838,376.812z">
            </path>
        </g>
        <g id="XMLID_8538_">
            <path id="XMLID_8539_"
                d="M600.209,385.689H558.91c-0.494,0-0.968-0.199-1.313-0.553c-0.345-0.354-0.534-0.832-0.522-1.326    l0.478-20.346c0.023-0.997,0.838-1.793,1.836-1.793h40.549c1.004,0,1.822,0.807,1.836,1.811l0.273,20.346    c0.007,0.491-0.184,0.964-0.529,1.314C601.171,385.492,600.7,385.689,600.209,385.689z M560.789,382.017h37.559l-0.224-16.674    h-36.944L560.789,382.017z">
            </path>
        </g>
        <g id="XMLID_8536_">
            <path id="XMLID_8537_"
                d="M331.93,423.924c-0.685,0-1.342-0.384-1.657-1.043c-0.438-0.914-0.052-2.011,0.862-2.449l92.003-44.076    c0.915-0.438,2.011-0.052,2.449,0.863c0.438,0.914,0.052,2.011-0.862,2.449l-92.003,44.076    C332.466,423.866,332.196,423.924,331.93,423.924z">
            </path>
        </g>
        <g id="XMLID_8534_">
            <path id="XMLID_8535_"
                d="M435.547,423.87c-0.685,0-1.342-0.384-1.657-1.043c-0.438-0.915-0.052-2.011,0.862-2.449l92.003-44.076    c0.915-0.438,2.011-0.052,2.449,0.863c0.438,0.914,0.052,2.011-0.862,2.449l-92.003,44.076    C436.084,423.812,435.813,423.87,435.547,423.87z">
            </path>
        </g>
        <g id="XMLID_8530_">
            <path id="XMLID_8531_"
                d="M222.241,535.839h-25.237c-1.014,0-1.836-0.822-1.836-1.836v-8.724c0-1.014,0.822-1.836,1.836-1.836    h25.237c1.014,0,1.836,0.822,1.836,1.836v8.724C224.077,535.018,223.255,535.839,222.241,535.839z M198.84,532.168h21.566v-5.052    H198.84V532.168z">
            </path>
        </g>
        <g id="XMLID_8526_">
            <path id="XMLID_8527_"
                d="M264.226,535.839h-25.237c-1.014,0-1.836-0.822-1.836-1.836v-8.724c0-1.014,0.822-1.836,1.836-1.836    h25.237c1.014,0,1.836,0.822,1.836,1.836v8.724C266.062,535.018,265.24,535.839,264.226,535.839z M240.825,532.168h21.565v-5.052    h-21.565V532.168z">
            </path>
        </g>
        <g id="XMLID_8522_">
            <path id="XMLID_8523_"
                d="M306.211,535.839h-25.237c-1.014,0-1.836-0.822-1.836-1.836v-8.724c0-1.014,0.822-1.836,1.836-1.836    h25.237c1.014,0,1.836,0.822,1.836,1.836v8.724C308.047,535.018,307.225,535.839,306.211,535.839z M282.81,532.168h21.565v-5.052    H282.81V532.168z">
            </path>
        </g>
        <g id="XMLID_8518_">
            <path id="XMLID_8519_"
                d="M897.241,540.913h-1.011c-7.795,0-14.137-6.342-14.137-14.137v-70.593    c0-7.795,6.342-14.137,14.137-14.137h1.011c7.795,0,14.137,6.342,14.137,14.137v70.593    C911.378,534.571,905.036,540.913,897.241,540.913z M896.23,445.718c-5.77,0-10.465,4.695-10.465,10.465v70.593    c0,5.771,4.695,10.465,10.465,10.465h1.011c5.77,0,10.465-4.695,10.465-10.465v-70.593c0-5.77-4.695-10.465-10.465-10.465H896.23z    ">
            </path>
        </g>
        <g id="XMLID_8516_">
            <path id="XMLID_8517_"
                d="M832.489,516.65c-1.014,0-1.836-0.822-1.836-1.836v-59.188c0-5.463-4.445-9.908-9.908-9.908h-2.125    c-5.463,0-9.908,4.445-9.908,9.908v59.188c0,1.014-0.822,1.836-1.836,1.836c-1.014,0-1.836-0.822-1.836-1.836v-59.188    c0-7.488,6.092-13.58,13.58-13.58h2.125c7.488,0,13.58,6.092,13.58,13.58v59.188C834.325,515.828,833.503,516.65,832.489,516.65z">
            </path>
        </g>
        <g id="XMLID_8512_">
            <path id="XMLID_8513_"
                d="M901.474,445.193h-9.64c-0.724,0-1.311-0.587-1.311-1.311v-4.094c0-0.724,0.587-1.311,1.311-1.311h9.64    c0.724,0,1.311,0.587,1.311,1.311v4.094C902.786,444.606,902.199,445.193,901.474,445.193z M893.146,442.571h7.018V441.1h-7.018    V442.571z">
            </path>
        </g>
        <g id="XMLID_8508_">
            <path id="XMLID_8509_"
                d="M824.503,445.193h-9.64c-0.724,0-1.311-0.587-1.311-1.311v-4.094c0-0.724,0.587-1.311,1.311-1.311h9.64    c0.724,0,1.311,0.587,1.311,1.311v4.094C825.814,444.606,825.227,445.193,824.503,445.193z M816.174,442.571h7.018V441.1h-7.018    V442.571z">
            </path>
        </g>
        <g id="XMLID_8506_">
            <path id="XMLID_8507_"
                d="M883.929,464.869h-23.716c-2.247,0-4.074-1.828-4.074-4.074v-40.427c0-2.82-2.295-5.115-5.115-5.115    h-26.891c-2.948,0-5.347,2.398-5.347,5.347v18.15c0,0.724-0.587,1.311-1.311,1.311c-0.724,0-1.311-0.587-1.311-1.311V420.6    c0-4.394,3.575-7.97,7.969-7.97h26.891c4.267,0,7.738,3.471,7.738,7.738v40.427c0,0.8,0.651,1.452,1.451,1.452h23.716    c0.724,0,1.311,0.587,1.311,1.311C885.24,464.282,884.653,464.869,883.929,464.869z">
            </path>
        </g>
        <g id="XMLID_8504_">
            <path id="XMLID_8505_"
                d="M883.929,469.513h-24.333c-4.458,0-8.085-3.627-8.085-8.085v-40.497c0-0.579-0.471-1.05-1.05-1.05    h-26.202c-0.528,0-0.958,0.43-0.958,0.958v18.95c0,0.724-0.587,1.311-1.311,1.311c-0.724,0-1.311-0.587-1.311-1.311v-18.95    c0-1.975,1.606-3.581,3.581-3.581h26.202c2.026,0,3.673,1.648,3.673,3.673v40.497c0,3.012,2.45,5.462,5.462,5.462h24.333    c0.724,0,1.311,0.587,1.311,1.311S884.653,469.513,883.929,469.513z">
            </path>
        </g>
        <g id="XMLID_8502_">
            <path id="XMLID_8503_"
                d="M883.929,481.901h-35.873c-1.816,0-3.293-1.478-3.293-3.294v-16.064c0-2.527-2.056-4.583-4.583-4.583    h-7.691c-0.724,0-1.311-0.587-1.311-1.311c0-0.724,0.587-1.311,1.311-1.311h7.691c3.973,0,7.206,3.232,7.206,7.206v16.064    c0,0.37,0.301,0.671,0.671,0.671h35.873c0.724,0,1.311,0.587,1.311,1.311C885.24,481.313,884.653,481.901,883.929,481.901z">
            </path>
        </g>
        <g id="XMLID_8500_">
            <path id="XMLID_8501_"
                d="M883.929,486.271H847.78c-4.162,0-7.548-3.386-7.548-7.548v-16.386c0-0.021-0.017-0.038-0.038-0.038    h-7.704c-0.724,0-1.311-0.587-1.311-1.311c0-0.724,0.587-1.311,1.311-1.311h7.704c1.467,0,2.661,1.194,2.661,2.661v16.386    c0,2.716,2.21,4.926,4.926,4.926h36.149c0.724,0,1.311,0.587,1.311,1.311C885.24,485.684,884.653,486.271,883.929,486.271z">
            </path>
        </g>
        <g id="XMLID_8498_">
            <path id="XMLID_8499_"
                d="M928.853,538.779c-0.724,0-1.311-0.587-1.311-1.311v-61.479c0-2.269-1.846-4.115-4.115-4.115h-13.885    c-0.724,0-1.311-0.587-1.311-1.311c0-0.724,0.587-1.311,1.311-1.311h13.885c3.715,0,6.738,3.022,6.738,6.737v61.479    C930.165,538.192,929.578,538.779,928.853,538.779z">
            </path>
        </g>
        <g id="XMLID_8496_">
            <path id="XMLID_8497_"
                d="M924.66,538.779c-0.724,0-1.311-0.587-1.311-1.311v-61.196c0-0.139-0.113-0.252-0.252-0.252h-13.555    c-0.724,0-1.311-0.587-1.311-1.311c0-0.724,0.587-1.311,1.311-1.311h13.555c1.585,0,2.875,1.29,2.875,2.874v61.196    C925.971,538.192,925.384,538.779,924.66,538.779z">
            </path>
        </g>
        <g id="XMLID_8492_">
            <path id="XMLID_8493_"
                d="M939.648,586.838H790.927c-1.014,0-1.836-0.822-1.836-1.836v-70.189c0-1.014,0.822-1.836,1.836-1.836    h73.355c1.014,0,1.836,0.822,1.836,1.836v22.416h73.529c1.014,0,1.836,0.822,1.836,1.836v45.937    C941.483,586.016,940.661,586.838,939.648,586.838z M792.763,583.166h145.049v-42.265h-73.529c-1.014,0-1.836-0.822-1.836-1.836    V516.65h-69.684V583.166z">
            </path>
        </g>
        <g id="XMLID_8488_">
            <path id="XMLID_8489_"
                d="M295.957,311.772c-1.879,0-3.677-0.662-5.12-1.896c-1.604-1.371-2.577-3.284-2.742-5.388    c-0.164-2.103,0.5-4.145,1.871-5.748c1.371-1.604,3.284-2.577,5.388-2.742c0.238-0.019,0.479-0.026,0.715-0.023    c0.979-4.433,4.743-7.811,9.44-8.178c1.667-0.13,3.298,0.129,4.809,0.756c1.953-3.293,5.422-5.507,9.302-5.811l0,0    c6.54-0.513,12.275,4.393,12.786,10.931c0.248,3.168-0.753,6.242-2.818,8.657c-2.065,2.415-4.946,3.881-8.114,4.129    c-2.466,0.192-4.876-0.372-6.963-1.606c-1.795,2.247-4.431,3.665-7.365,3.894c-1.547,0.121-3.077-0.099-4.508-0.641    c-1.306,2.073-3.517,3.442-6.053,3.64C296.375,311.764,296.165,311.772,295.957,311.772z M295.957,299.647    c-0.106,0-0.212,0.004-0.317,0.012c-1.126,0.088-2.149,0.609-2.883,1.467c-0.734,0.858-1.089,1.951-1.001,3.076    c0.088,1.126,0.609,2.15,1.467,2.883c0.858,0.734,1.948,1.089,3.076,1.001c1.743-0.136,3.2-1.308,3.71-2.986    c0.166-0.546,0.576-0.983,1.11-1.184c0.533-0.201,1.129-0.142,1.615,0.159c1.248,0.775,2.675,1.124,4.127,1.011    c2.364-0.185,4.432-1.56,5.531-3.678c0.258-0.497,0.728-0.849,1.277-0.956c0.549-0.107,1.117,0.042,1.543,0.405    c1.669,1.423,3.791,2.111,5.976,1.941c2.19-0.171,4.182-1.185,5.609-2.855c1.427-1.669,2.119-3.795,1.948-5.984    c-0.171-2.19-1.185-4.182-2.854-5.609c-1.67-1.427-3.794-2.118-5.985-1.948l0,0c-3.16,0.247-5.927,2.332-7.049,5.311    c-0.197,0.524-0.623,0.93-1.157,1.101c-0.533,0.171-1.116,0.09-1.582-0.222c-1.29-0.862-2.785-1.255-4.324-1.135    c-3.509,0.274-6.218,3.13-6.301,6.642c-0.014,0.57-0.291,1.101-0.751,1.438c-0.46,0.337-1.051,0.441-1.597,0.282    C296.753,299.704,296.354,299.647,295.957,299.647z">
            </path>
        </g>
        <g id="XMLID_8484_">
            <path id="XMLID_8485_"
                d="M253.101,311.772c-1.878,0-3.676-0.662-5.12-1.896c-1.604-1.371-2.577-3.284-2.742-5.388    c-0.165-2.103,0.5-4.145,1.871-5.748c1.371-1.604,3.284-2.577,5.388-2.742c0.238-0.019,0.477-0.026,0.715-0.023    c0.979-4.433,4.743-7.811,9.44-8.178c1.666-0.13,3.298,0.129,4.809,0.756c1.953-3.293,5.423-5.507,9.302-5.811l0,0    c6.541-0.513,12.275,4.393,12.786,10.931c0.248,3.168-0.753,6.242-2.818,8.657c-2.065,2.415-4.946,3.881-8.114,4.129    c-2.468,0.192-4.876-0.371-6.962-1.606c-1.795,2.247-4.431,3.665-7.365,3.894c-1.549,0.121-3.078-0.099-4.508-0.641    c-1.306,2.073-3.517,3.442-6.053,3.64C253.52,311.764,253.31,311.772,253.101,311.772z M253.102,299.647    c-0.106,0-0.212,0.004-0.317,0.012c-1.126,0.088-2.149,0.609-2.883,1.467c-0.734,0.858-1.089,1.95-1.001,3.076    c0.088,1.126,0.609,2.15,1.467,2.883c0.858,0.734,1.95,1.088,3.076,1.001c1.743-0.136,3.2-1.308,3.71-2.986    c0.166-0.546,0.576-0.983,1.11-1.184c0.533-0.201,1.13-0.142,1.615,0.159c1.249,0.775,2.675,1.124,4.127,1.011    c2.364-0.185,4.432-1.56,5.531-3.678c0.258-0.497,0.728-0.849,1.277-0.956c0.549-0.107,1.117,0.042,1.543,0.405    c1.668,1.423,3.79,2.111,5.976,1.941c2.19-0.171,4.182-1.185,5.609-2.855c1.427-1.669,2.119-3.795,1.948-5.984    c-0.354-4.521-4.319-7.908-8.839-7.557l0,0c-3.16,0.247-5.927,2.332-7.049,5.311c-0.197,0.524-0.623,0.93-1.157,1.101    c-0.532,0.171-1.115,0.09-1.581-0.222c-1.291-0.863-2.786-1.254-4.324-1.135c-3.509,0.274-6.218,3.13-6.301,6.642    c-0.014,0.57-0.291,1.101-0.751,1.438c-0.46,0.337-1.05,0.441-1.597,0.282C253.897,299.704,253.499,299.647,253.102,299.647z">
            </path>
        </g>
        <g id="XMLID_8480_">
            <path id="XMLID_8481_"
                d="M210.247,311.772c-1.878,0-3.676-0.662-5.12-1.896c-1.604-1.371-2.577-3.284-2.742-5.388    c-0.165-2.103,0.5-4.145,1.871-5.748c1.371-1.604,3.284-2.577,5.388-2.742c0.238-0.019,0.478-0.026,0.715-0.023    c0.979-4.433,4.743-7.811,9.44-8.178c1.664-0.13,3.297,0.129,4.809,0.756c1.953-3.293,5.422-5.507,9.302-5.811l0,0    c6.542-0.513,12.275,4.393,12.786,10.931c0.248,3.168-0.753,6.242-2.818,8.657c-2.065,2.415-4.946,3.881-8.114,4.129    c-2.467,0.192-4.876-0.371-6.962-1.606c-1.795,2.247-4.431,3.665-7.365,3.894c-1.547,0.121-3.078-0.099-4.509-0.641    c-1.306,2.073-3.517,3.442-6.053,3.64C210.665,311.764,210.455,311.772,210.247,311.772z M210.247,299.647    c-0.106,0-0.212,0.004-0.317,0.012c-1.126,0.088-2.149,0.609-2.883,1.467c-0.734,0.858-1.089,1.951-1.001,3.076    c0.088,1.126,0.609,2.15,1.467,2.883c0.858,0.734,1.95,1.088,3.076,1.001c1.743-0.136,3.2-1.308,3.711-2.986    c0.166-0.545,0.576-0.983,1.11-1.183c0.532-0.201,1.13-0.142,1.615,0.159c1.248,0.775,2.673,1.125,4.126,1.011    c2.364-0.185,4.432-1.56,5.531-3.678c0.258-0.497,0.728-0.849,1.278-0.956c0.549-0.107,1.117,0.042,1.543,0.405    c1.669,1.423,3.791,2.111,5.976,1.941c2.19-0.171,4.182-1.185,5.609-2.855c1.427-1.669,2.119-3.795,1.948-5.984    c-0.353-4.521-4.321-7.908-8.839-7.557l0,0c-3.161,0.247-5.927,2.332-7.049,5.311c-0.197,0.524-0.623,0.93-1.157,1.101    c-0.533,0.171-1.116,0.09-1.582-0.222c-1.291-0.863-2.786-1.255-4.324-1.135c-3.509,0.274-6.218,3.13-6.301,6.642    c-0.014,0.57-0.291,1.101-0.751,1.438c-0.46,0.337-1.05,0.441-1.597,0.282C211.042,299.704,210.644,299.647,210.247,299.647z">
            </path>
        </g>
        <g id="XMLID_8476_">
            <path id="XMLID_8477_"
                d="M586.517,293.442c-2.485,0-4.882-0.826-6.866-2.385c-2.341-1.84-3.825-4.481-4.179-7.438    c-0.354-2.956,0.464-5.873,2.304-8.214c1.84-2.341,4.481-3.825,7.437-4.179c0.107-0.013,0.212-0.025,0.315-0.036    c-0.802-1.522-1.116-3.112-1.302-4.661c-0.798-6.662,3.972-12.731,10.634-13.529c3.206-0.385,6.359,0.502,8.874,2.452    c1.364-0.921,2.92-1.502,4.576-1.7c1.942-0.232,3.862,0.073,5.593,0.869c1.434-3.077,4.361-5.254,7.866-5.674    c3.051-0.365,6.049,0.686,8.192,2.793c0.904-0.492,1.896-0.809,2.935-0.934c1.725-0.206,3.415,0.129,4.877,0.925    c1.251-2.996,4.027-5.184,7.434-5.592c2.796-0.335,5.535,0.619,7.505,2.506c1.443-1.403,3.323-2.323,5.35-2.566    c1.94-0.233,3.87,0.149,5.558,1.08c1.284-0.767,2.714-1.258,4.199-1.436c5.869-0.703,11.209,3.497,11.912,9.363v0    c0.547,4.566-1.822,8.86-5.852,10.856c-0.429,4.236-3.777,7.752-8.107,8.271c-1.193,0.143-2.387,0.055-3.528-0.255    c-1.442,2.493-3.996,4.222-6.913,4.572c-2.134,0.256-4.267-0.24-6.056-1.375c-1.119,0.808-2.431,1.326-3.816,1.492    c-1.997,0.239-3.953-0.257-5.547-1.329c-1.569,3.822-5.112,6.639-9.395,7.152c-4.2,0.503-8.313-1.356-10.764-4.664    c-1.147,0.872-2.516,1.435-3.982,1.611c-2.251,0.27-4.44-0.391-6.124-1.754c-1.669,2.507-4.373,4.219-7.464,4.59    c-1.569,0.188-3.133,0.021-4.594-0.475c-0.661,4.916-4.576,8.967-9.723,9.584C587.414,293.415,586.964,293.442,586.517,293.442z     M587.88,274.715c-0.73,0-1.558,0.076-2.23,0.157c-1.982,0.237-3.754,1.233-4.988,2.802c-1.234,1.57-1.783,3.526-1.545,5.508    c0.237,1.982,1.233,3.754,2.802,4.988c1.57,1.234,3.525,1.783,5.508,1.545c4.092-0.49,7.023-4.219,6.533-8.311    c-0.008-0.065-0.021-0.128-0.033-0.192l-0.034-0.187c-0.128-0.744,0.213-1.49,0.859-1.881c0.646-0.391,1.465-0.346,2.065,0.112    c1.416,1.081,3.165,1.561,4.927,1.35c2.691-0.322,4.929-2.211,5.702-4.812c0.212-0.711,0.83-1.225,1.567-1.303    c0.739-0.077,1.45,0.296,1.805,0.947c0.894,1.639,2.666,2.553,4.514,2.333c1.325-0.159,2.508-0.892,3.245-2.012    c0.372-0.564,1.026-0.879,1.696-0.819c0.673,0.06,1.259,0.484,1.525,1.105c1.385,3.232,4.794,5.197,8.281,4.779    c3.794-0.455,6.742-3.549,7.008-7.358c0.057-0.811,0.639-1.487,1.433-1.664c0.791-0.176,1.608,0.189,2.003,0.9    c0.899,1.616,2.664,2.518,4.498,2.299c1.077-0.129,2.074-0.645,2.809-1.453c0.329-0.363,0.79-0.578,1.279-0.6    c0.488-0.021,0.967,0.154,1.326,0.486c1.208,1.117,2.834,1.645,4.458,1.451c2.149-0.257,3.972-1.759,4.645-3.825    c0.167-0.511,0.549-0.924,1.046-1.129c0.497-0.205,1.059-0.181,1.538,0.064c0.99,0.508,2.102,0.707,3.212,0.574    c2.877-0.345,5.035-2.882,4.914-5.777c-0.034-0.803,0.46-1.535,1.217-1.806c3.113-1.111,5.012-4.18,4.619-7.462    c-0.462-3.855-3.977-6.614-7.829-6.154c-1.263,0.151-2.466,0.649-3.48,1.441c-0.656,0.512-1.575,0.518-2.239,0.015    c-1.163-0.882-2.596-1.272-4.039-1.1c-1.768,0.212-3.292,1.226-4.182,2.783c-0.326,0.569-0.93,0.921-1.586,0.924    c-0.646-0.002-1.263-0.344-1.594-0.911c-1.124-1.928-3.283-3.003-5.493-2.737c-2.744,0.329-4.81,2.572-4.912,5.335    c-0.029,0.771-0.537,1.442-1.271,1.679c-0.734,0.237-1.539-0.011-2.013-0.621c-0.988-1.271-2.524-1.916-4.115-1.727    c-0.92,0.11-1.773,0.495-2.467,1.114c-0.391,0.349-0.913,0.513-1.433,0.453c-0.521-0.061-0.991-0.341-1.291-0.77    c-1.343-1.916-3.618-2.933-5.934-2.656c-2.769,0.332-4.966,2.395-5.469,5.134c-0.116,0.635-0.558,1.162-1.162,1.388    c-0.605,0.226-1.283,0.119-1.788-0.284c-1.434-1.142-3.223-1.652-5.04-1.434c-1.436,0.172-2.757,0.79-3.822,1.788    c-0.728,0.681-1.865,0.657-2.563-0.052c-1.866-1.895-4.441-2.802-7.063-2.488c-4.652,0.557-7.983,4.795-7.425,9.447    c0.242,2.023,0.612,3.831,2.688,5.463c0.398,0.313,0.649,0.776,0.694,1.281c0.051,0.574-0.174,1.148-0.602,1.534    c-0.458,0.413-1.03,0.556-1.699,0.426C588.654,274.738,588.282,274.715,587.88,274.715z">
            </path>
        </g>
        <g id="XMLID_8472_">
            <path id="XMLID_8473_"
                d="M654.66,587.103H540.362c-1.014,0-1.836-0.822-1.836-1.836V473.421c0-1.014,0.822-1.836,1.836-1.836    H654.66c1.014,0,1.836,0.822,1.836,1.836v111.846C656.495,586.281,655.674,587.103,654.66,587.103z M542.198,583.431h110.626    V475.257H542.198V583.431z">
            </path>
        </g>
        <g id="XMLID_8468_">
            <path id="XMLID_8469_"
                d="M783.889,587.103H661.757c-1.014,0-1.836-0.822-1.836-1.836V399.178c0-1.014,0.822-1.836,1.836-1.836    h122.132c1.014,0,1.836,0.822,1.836,1.836v186.089C785.725,586.281,784.903,587.103,783.889,587.103z M663.593,583.431h118.46    V401.014h-118.46V583.431z">
            </path>
        </g>
        <g id="XMLID_8464_">
            <path id="XMLID_8465_"
                d="M776.66,395.404H668.025c-1.014,0-1.836-0.822-1.836-1.836V380.78c0-1.014,0.822-1.836,1.836-1.836    H776.66c1.014,0,1.836,0.822,1.836,1.836v12.788C778.496,394.582,777.674,395.404,776.66,395.404z M669.861,391.732h104.964    v-9.116H669.861V391.732z">
            </path>
        </g>
        <g id="XMLID_8460_">
            <path id="XMLID_8461_"
                d="M700.774,440.438h-22.968c-1.014,0-1.836-0.822-1.836-1.836v-22.968c0-1.014,0.822-1.836,1.836-1.836    h22.968c1.014,0,1.836,0.822,1.836,1.836v22.968C702.61,439.616,701.789,440.438,700.774,440.438z M679.643,436.766h19.296V417.47    h-19.296V436.766z">
            </path>
        </g>
        <g id="XMLID_8456_">
            <path id="XMLID_8457_"
                d="M734.527,440.438h-22.968c-1.014,0-1.836-0.822-1.836-1.836v-22.968c0-1.014,0.822-1.836,1.836-1.836    h22.968c1.014,0,1.836,0.822,1.836,1.836v22.968C736.363,439.616,735.542,440.438,734.527,440.438z M713.395,436.766h19.296    V417.47h-19.296V436.766z">
            </path>
        </g>
        <g id="XMLID_8452_">
            <path id="XMLID_8453_"
                d="M700.774,472.266h-22.968c-1.014,0-1.836-0.822-1.836-1.836v-22.968c0-1.014,0.822-1.836,1.836-1.836    h22.968c1.014,0,1.836,0.822,1.836,1.836v22.968C702.61,471.444,701.789,472.266,700.774,472.266z M679.643,468.594h19.296    v-19.296h-19.296V468.594z">
            </path>
        </g>
        <g id="XMLID_8448_">
            <path id="XMLID_8449_"
                d="M734.527,472.266h-22.968c-1.014,0-1.836-0.822-1.836-1.836v-22.968c0-1.014,0.822-1.836,1.836-1.836    h22.968c1.014,0,1.836,0.822,1.836,1.836v22.968C736.363,471.444,735.542,472.266,734.527,472.266z M713.395,468.594h19.296    v-19.296h-19.296V468.594z">
            </path>
        </g>
        <g id="XMLID_8444_">
            <path id="XMLID_8445_"
                d="M700.957,504.094h-22.968c-1.014,0-1.836-0.822-1.836-1.836V479.29c0-1.014,0.822-1.836,1.836-1.836    h22.968c1.014,0,1.836,0.822,1.836,1.836v22.968C702.793,503.272,701.971,504.094,700.957,504.094z M679.825,500.423h19.296    v-19.296h-19.296V500.423z">
            </path>
        </g>
        <g id="XMLID_8440_">
            <path id="XMLID_8441_"
                d="M734.527,504.094h-22.968c-1.014,0-1.836-0.822-1.836-1.836V479.29c0-1.014,0.822-1.836,1.836-1.836    h22.968c1.014,0,1.836,0.822,1.836,1.836v22.968C736.363,503.272,735.542,504.094,734.527,504.094z M713.395,500.423h19.296    v-19.296h-19.296V500.423z">
            </path>
        </g>
        <g id="XMLID_8436_">
            <path id="XMLID_8437_"
                d="M768.386,440.438h-22.968c-1.014,0-1.836-0.822-1.836-1.836v-22.968c0-1.014,0.822-1.836,1.836-1.836    h22.968c1.014,0,1.836,0.822,1.836,1.836v22.968C770.222,439.616,769.401,440.438,768.386,440.438z M747.254,436.766h19.296    V417.47h-19.296V436.766z">
            </path>
        </g>
        <g id="XMLID_8432_">
            <path id="XMLID_8433_"
                d="M768.386,472.266h-22.968c-1.014,0-1.836-0.822-1.836-1.836v-22.968c0-1.014,0.822-1.836,1.836-1.836    h22.968c1.014,0,1.836,0.822,1.836,1.836v22.968C770.222,471.444,769.401,472.266,768.386,472.266z M747.254,468.594h19.296    v-19.296h-19.296V468.594z">
            </path>
        </g>
        <g id="XMLID_8428_">
            <path id="XMLID_8429_"
                d="M768.386,504.094h-22.968c-1.014,0-1.836-0.822-1.836-1.836V479.29c0-1.014,0.822-1.836,1.836-1.836    h22.968c1.014,0,1.836,0.822,1.836,1.836v22.968C770.222,503.272,769.401,504.094,768.386,504.094z M747.254,500.423h19.296    v-19.296h-19.296V500.423z">
            </path>
        </g>
        <g id="XMLID_8426_">
            <path id="XMLID_8427_"
                d="M602.334,470.319c-0.997,0-1.815-0.798-1.835-1.8l-2.58-131.393c-0.01-0.493,0.18-0.969,0.525-1.321    c0.345-0.352,0.818-0.551,1.311-0.551h2.126v-9.678h-2.388c-1,0-1.816-0.8-1.836-1.8l-0.374-19.074h-35.285l-0.377,19.074    c-0.02,1-0.836,1.8-1.836,1.8h-2.411v9.678h2.148c0.493,0,0.965,0.198,1.31,0.55c0.345,0.352,0.535,0.827,0.526,1.32    l-2.431,131.393c-0.019,1.002-0.837,1.802-1.835,1.802c-0.012,0-0.023,0-0.035,0c-1.014-0.019-1.82-0.856-1.802-1.87    l2.397-129.523h-2.113c-1.014,0-1.836-0.822-1.836-1.836v-13.35c0-1.014,0.822-1.836,1.836-1.836h2.447l0.377-19.075    c0.02-1,0.836-1.8,1.836-1.8h38.885c1,0,1.816,0.8,1.836,1.8l0.374,19.074h2.424c1.014,0,1.836,0.822,1.836,1.836v13.35    c0,1.014-0.822,1.836-1.836,1.836h-2.09l2.544,129.521c0.02,1.014-0.786,1.852-1.8,1.871    C602.358,470.319,602.346,470.319,602.334,470.319z">
            </path>
        </g>
        <g id="XMLID_8424_">
            <path id="XMLID_8425_"
                d="M561.352,555.242c-1.014,0-1.836-0.822-1.836-1.836v-27.391c0-1.014,0.822-1.836,1.836-1.836    c1.014,0,1.836,0.822,1.836,1.836v27.391C563.188,554.42,562.366,555.242,561.352,555.242z">
            </path>
        </g>
        <g id="XMLID_8422_">
            <path id="XMLID_8423_"
                d="M584.476,555.242c-1.014,0-1.836-0.822-1.836-1.836v-27.391c0-1.014,0.822-1.836,1.836-1.836    c1.014,0,1.836,0.822,1.836,1.836v27.391C586.312,554.42,585.49,555.242,584.476,555.242z">
            </path>
        </g>
        <g id="XMLID_8420_">
            <path id="XMLID_8421_"
                d="M607.599,555.242c-1.014,0-1.836-0.822-1.836-1.836v-27.391c0-1.014,0.822-1.836,1.836-1.836    c1.014,0,1.836,0.822,1.836,1.836v27.391C609.435,554.42,608.613,555.242,607.599,555.242z">
            </path>
        </g>
        <g id="XMLID_8418_">
            <path id="XMLID_8419_"
                d="M630.723,555.242c-1.014,0-1.836-0.822-1.836-1.836v-27.391c0-1.014,0.822-1.836,1.836-1.836    c1.014,0,1.836,0.822,1.836,1.836v27.391C632.559,554.42,631.737,555.242,630.723,555.242z">
            </path>
        </g>
        <g id="XMLID_8416_">
            <path id="XMLID_8417_"
                d="M561.352,571.989c-1.014,0-1.836-0.822-1.836-1.836v-8.824c0-1.014,0.822-1.836,1.836-1.836    c1.014,0,1.836,0.822,1.836,1.836v8.824C563.188,571.167,562.366,571.989,561.352,571.989z">
            </path>
        </g>
        <g id="XMLID_8414_">
            <path id="XMLID_8415_"
                d="M584.476,571.989c-1.014,0-1.836-0.822-1.836-1.836v-8.824c0-1.014,0.822-1.836,1.836-1.836    c1.014,0,1.836,0.822,1.836,1.836v8.824C586.312,571.167,585.49,571.989,584.476,571.989z">
            </path>
        </g>
        <g id="XMLID_8412_">
            <path id="XMLID_8413_"
                d="M607.599,571.989c-1.014,0-1.836-0.822-1.836-1.836v-8.824c0-1.014,0.822-1.836,1.836-1.836    c1.014,0,1.836,0.822,1.836,1.836v8.824C609.435,571.167,608.613,571.989,607.599,571.989z">
            </path>
        </g>
        <g id="XMLID_8410_">
            <path id="XMLID_8411_"
                d="M630.723,571.989c-1.014,0-1.836-0.822-1.836-1.836v-8.824c0-1.014,0.822-1.836,1.836-1.836    c1.014,0,1.836,0.822,1.836,1.836v8.824C632.559,571.167,631.737,571.989,630.723,571.989z">
            </path>
        </g>
        <g id="XMLID_8406_">
            <path id="XMLID_8407_"
                d="M639.461,507.924h-83.924c-1.014,0-1.836-0.822-1.836-1.836v-13.866c0-1.014,0.822-1.836,1.836-1.836    h83.924c1.014,0,1.836,0.822,1.836,1.836v13.866C641.297,507.102,640.475,507.924,639.461,507.924z M557.373,504.252h80.252    v-10.194h-80.252V504.252z">
            </path>
        </g>
        <g id="XMLID_8402_">
            <path id="XMLID_8403_"
                d="M417.553,453.866h-79.459c-1.014,0-1.836-0.822-1.836-1.836v-11.195c0-1.014,0.822-1.836,1.836-1.836    h79.459c1.014,0,1.836,0.822,1.836,1.836v11.195C419.389,453.044,418.567,453.866,417.553,453.866z M339.929,450.194h75.788    v-7.523h-75.788V450.194z">
            </path>
        </g>
        <g id="XMLID_8398_">
            <path id="XMLID_8399_"
                d="M417.553,477.864h-79.459c-1.014,0-1.836-0.822-1.836-1.836v-11.195c0-1.014,0.822-1.836,1.836-1.836    h79.459c1.014,0,1.836,0.822,1.836,1.836v11.195C419.389,477.042,418.567,477.864,417.553,477.864z M339.929,474.192h75.788    v-7.523h-75.788V474.192z">
            </path>
        </g>
        <g id="XMLID_8393_">
            <path id="XMLID_8397_"
                d="M677.989,602.849H285.483c-1.014,0-1.836,0.822-1.836,1.836c0,1.014,0.822,1.836,1.836,1.836h392.506    c1.014,0,1.836-0.822,1.836-1.836C679.825,603.671,679.003,602.849,677.989,602.849z">
            </path>
            <path id="XMLID_8396_"
                d="M262.902,602.849h-78.176c-1.014,0-1.836,0.822-1.836,1.836c0,1.014,0.822,1.836,1.836,1.836h78.176    c1.014,0,1.836-0.822,1.836-1.836C264.737,603.671,263.916,602.849,262.902,602.849z">
            </path>
            <path id="XMLID_8395_"
                d="M939.648,602.849h-64.534c-1.014,0-1.836,0.822-1.836,1.836c0,1.014,0.822,1.836,1.836,1.836h64.534    c1.014,0,1.836-0.822,1.836-1.836C941.483,603.671,940.661,602.849,939.648,602.849z">
            </path>
            <path id="XMLID_8394_"
                d="M856.77,602.849h-99.868c-1.014,0-1.836,0.822-1.836,1.836c0,1.014,0.822,1.836,1.836,1.836h99.868    c1.014,0,1.836-0.822,1.836-1.836C858.606,603.671,857.784,602.849,856.77,602.849z">
            </path>
        </g>
        <g id="XMLID_8389_">
            <path id="XMLID_8390_"
                d="M711.453,586.835h-17.087c-1.014,0-1.836-0.822-1.836-1.836v-58.633c0-5.59,4.548-10.138,10.138-10.138    h0.665c5.49,0,9.956,4.466,9.956,9.956v58.815C713.289,586.013,712.467,586.835,711.453,586.835z M696.203,583.163h13.415v-56.979    c0-3.465-2.819-6.284-6.284-6.284h-0.665c-3.565,0-6.466,2.9-6.466,6.466V583.163z"
                style="
    fill:var(--navy);
"></path>
        </g>
        <g id="XMLID_8385_" style="
    fill:var(--navy);
">
            <path id="XMLID_8386_"
                d="M750.319,586.578h-17.087c-1.014,0-1.836-0.822-1.836-1.836v-58.377c0-5.59,4.548-10.138,10.138-10.138    h0.665c5.49,0,9.956,4.466,9.956,9.956v58.558C752.154,585.756,751.333,586.578,750.319,586.578z M735.068,582.907h13.415v-56.722    c0-3.465-2.819-6.284-6.284-6.284h-0.665c-3.565,0-6.466,2.9-6.466,6.466V582.907z">
            </path>
        </g>
        <g id="XMLID_8381_" style="
    fill:var(--navy);
">
            <path id="XMLID_8382_"
                d="M521.009,510.45h-79.732c-1.014,0-1.836-0.822-1.836-1.836v-35.193c0-1.014,0.822-1.836,1.836-1.836    h79.732c1.014,0,1.836,0.822,1.836,1.836v35.193C522.845,509.628,522.023,510.45,521.009,510.45z M443.113,506.778h76.06v-31.521    h-76.06V506.778z">
            </path>
        </g>
        <g id="XMLID_8374_" style="
    fill:var(--navy);
">
            <g id="XMLID_8379_">
                <path id="XMLID_8380_" style="fill:var(--navy);"
                    d="M506.907,222.186c-5.911,0-11.822,0-17.733,0c-2.247,0-2.293-2.442-1.299-3.832     c0.895-1.251,1.789-2.503,2.684-3.754c1.519-2.125,3.039-4.25,4.558-6.375c0.18,0.9,0.36,1.8,0.54,2.7     c0.237,1.187,2.047,0.683,1.81-0.499c-0.312-1.562-0.625-3.123-0.937-4.685c-0.102-0.511-0.686-0.771-1.154-0.656     c-1.741,0.429-3.482,0.859-5.223,1.289c-1.175,0.29-0.676,2.1,0.499,1.81c0.889-0.219,1.777-0.439,2.666-0.658     c-1.728,2.417-3.457,4.835-5.185,7.252c-0.711,0.995-1.422,1.989-2.134,2.984c-1.461,2.043-0.581,5.027,1.671,6.027     c0.989,0.439,2.295,0.274,3.35,0.274c2.065,0,4.13,0,6.195,0c3.23,0,6.461,0,9.691,0     C508.118,224.064,508.118,222.186,506.907,222.186z">
                </path>
            </g>
            <g id="XMLID_8377_">
                <path id="XMLID_8378_" style="fill:var(--navy);"
                    d="M515.376,195.252c1.396,1.879,2.793,3.757,4.189,5.636     c-0.975-0.15-1.95-0.3-2.925-0.45c-1.184-0.182-1.692,1.626-0.499,1.81c1.681,0.259,3.362,0.518,5.043,0.776     c0.466,0.072,1.059-0.111,1.155-0.656c0.272-1.547,0.544-3.093,0.816-4.64c0.208-1.184-1.601-1.69-1.81-0.499     c-0.139,0.788-0.277,1.577-0.416,2.365c-1.53-2.058-3.06-4.116-4.589-6.174c-1.781-2.396-3.613-6.141-7.035-6.06     c-3.07,0.073-4.991,4.294-6.476,6.469c-1.746,2.558-3.493,5.117-5.239,7.675c-0.685,1.003,0.943,1.941,1.621,0.947     c1.403-2.055,2.806-4.111,4.209-6.166c0.944-1.383,1.889-2.767,2.833-4.15c0.661-0.968,1.225-2.039,2.255-2.656     C511.168,187.887,514.202,193.673,515.376,195.252z">
                </path>
            </g>
            <g id="XMLID_8375_">
                <path id="XMLID_8376_" style="fill:var(--navy);"
                    d="M531.441,214.292c-2.155-2.93-4.31-5.859-6.465-8.789     c-0.709-0.964-2.339-0.029-1.621,0.947c1.81,2.461,3.62,4.922,5.43,7.383c0.983,1.337,1.966,2.673,2.95,4.01     c0.92,1.25,1.847,4.329-0.706,4.329c-5.42,0-10.84,0-16.26,0c0.646-0.644,1.292-1.288,1.938-1.933     c0.858-0.856-0.47-2.183-1.327-1.327c-1.204,1.201-2.409,2.402-3.613,3.603c-0.368,0.367-0.353,0.958,0,1.327     c1.085,1.135,2.17,2.271,3.254,3.406c0.838,0.877,2.163-0.453,1.327-1.327c-0.596-0.624-1.192-1.248-1.788-1.872     c2.864,0,5.729,0,8.593,0c2.036,0,4.072,0,6.107,0c1.317,0,2.57,0.125,3.73-0.635     C536.862,220.878,533.209,216.695,531.441,214.292z">
                </path>
            </g>
        </g>
        <g id="XMLID_8365_" style="
    fill:var(--navy);
">
            <g id="XMLID_8370_">
                <path id="XMLID_8371_" style="fill:var(--navy);"
                    d="M851.804,284.305c-0.003,0-0.005,0-0.008,0l-6.076-0.037     c-0.348-0.002-0.681-0.142-0.925-0.39c-0.245-0.247-0.381-0.582-0.379-0.93l0.021-3.367c-1.366-0.257-2.679-0.616-3.926-1.074     l-1.701,2.899c-0.367,0.624-1.17,0.834-1.795,0.467l-5.241-3.075c-0.3-0.176-0.518-0.464-0.605-0.801     c-0.088-0.337-0.038-0.694,0.138-0.994l1.696-2.891c-1.041-0.877-1.963-1.815-2.856-2.906l-2.92,1.655     c-0.63,0.357-1.43,0.136-1.787-0.494l-2.996-5.287c-0.171-0.302-0.216-0.661-0.123-0.996c0.093-0.335,0.315-0.62,0.617-0.791     l2.923-1.656c-0.478-1.336-0.809-2.609-1.027-3.943l-3.352-0.03c-0.724-0.007-1.306-0.599-1.3-1.323l0.055-6.076     c0.003-0.348,0.144-0.68,0.392-0.924c0.248-0.244,0.564-0.381,0.931-0.376l3.35,0.03c0.242-1.36,0.591-2.611,1.095-3.926     l-2.887-1.706c-0.3-0.177-0.516-0.465-0.603-0.802c-0.087-0.337-0.036-0.694,0.141-0.994l3.091-5.231     c0.177-0.299,0.466-0.516,0.802-0.603c0.336-0.087,0.694-0.036,0.994,0.141l2.89,1.707c0.897-1.053,1.837-1.973,2.911-2.85     l-1.646-2.926c-0.355-0.631-0.131-1.431,0.5-1.786l5.295-2.98c0.303-0.171,0.662-0.214,0.997-0.12     c0.335,0.094,0.619,0.317,0.789,0.62l1.652,2.936c1.205-0.413,2.439-0.738,3.65-0.96v-3.365c0-0.724,0.587-1.311,1.311-1.311     h6.076c0.724,0,1.311,0.587,1.311,1.311v3.362c1.354,0.241,2.654,0.59,3.933,1.054l1.683-2.908     c0.174-0.301,0.461-0.521,0.797-0.61c0.336-0.089,0.694-0.042,0.995,0.132l5.259,3.044c0.627,0.363,0.841,1.165,0.478,1.792     l-1.682,2.906c1.073,0.898,2.002,1.829,2.878,2.883l2.909-1.672c0.628-0.361,1.429-0.144,1.79,0.484l3.027,5.268     c0.361,0.628,0.145,1.43-0.484,1.79l-2.914,1.675c0.447,1.252,0.794,2.568,1.038,3.935l3.367,0.01     c0.724,0.002,1.31,0.591,1.307,1.315l-0.018,6.076c-0.001,0.348-0.14,0.681-0.387,0.926c-0.247,0.245-0.603,0.377-0.928,0.381     l-3.367-0.01c-0.251,1.362-0.607,2.676-1.063,3.929l2.904,1.693c0.3,0.175,0.519,0.462,0.608,0.799     c0.089,0.336,0.04,0.694-0.135,0.994l-3.06,5.25c-0.365,0.626-1.168,0.838-1.793,0.473l-2.903-1.691     c-0.874,1.031-1.831,1.979-2.894,2.864l1.666,2.92c0.359,0.629,0.14,1.43-0.489,1.789l-5.278,3.012     c-0.302,0.172-0.66,0.218-0.996,0.126c-0.336-0.092-0.621-0.313-0.793-0.615l-1.666-2.92c-1.258,0.44-2.59,0.787-3.938,1.026     l-0.02,3.368C853.11,283.723,852.524,284.305,851.804,284.305z M847.047,281.653l3.453,0.021l0.019-3.174     c0.004-0.656,0.491-1.207,1.141-1.293c1.844-0.241,3.763-0.738,5.414-1.402c0.235-0.116,0.503-0.161,0.772-0.121     c0.435,0.064,0.8,0.339,0.987,0.718l1.533,2.686l3-1.712l-1.573-2.757c-0.326-0.571-0.178-1.296,0.345-1.694     c1.584-1.204,2.864-2.473,4.03-3.993c0.402-0.524,1.13-0.667,1.701-0.335l2.743,1.598l1.739-2.984l-2.743-1.598     c-0.57-0.332-0.805-1.036-0.547-1.644c0.716-1.692,1.216-3.536,1.488-5.481c0.09-0.648,0.645-1.13,1.299-1.13     c0.001,0,0.003,0,0.004,0l3.174,0.01l0.01-3.454l-3.174-0.009c-0.655-0.002-1.209-0.487-1.296-1.137     c-0.263-1.956-0.752-3.803-1.455-5.491c-0.253-0.609-0.015-1.312,0.557-1.641l2.752-1.582l-1.721-2.994l-2.752,1.582     c-0.573,0.329-1.302,0.181-1.7-0.347c-1.172-1.553-2.407-2.791-4.003-4.014c-0.523-0.401-0.667-1.127-0.337-1.698l1.59-2.747     l-2.989-1.73l-1.59,2.748c-0.33,0.571-1.033,0.807-1.641,0.553c-1.754-0.734-3.541-1.215-5.46-1.468     c-0.022-0.003-0.043-0.006-0.065-0.009c-0.667-0.111-1.136-0.709-1.096-1.373v-3.095h-3.454v3.174     c0,0.675-0.51,1.231-1.167,1.303c-1.685,0.224-3.539,0.711-5.222,1.373c-0.609,0.24-1.302-0.007-1.623-0.577l-1.556-2.766     l-3.01,1.694l1.556,2.767c0.324,0.575,0.17,1.301-0.36,1.695c-1.589,1.183-2.838,2.405-4.05,3.965     c-0.406,0.521-1.134,0.66-1.703,0.324l-2.733-1.615l-1.757,2.973l2.733,1.615c0.569,0.336,0.799,1.044,0.536,1.65     c-0.819,1.89-1.259,3.469-1.517,5.449c-0.086,0.658-0.671,1.157-1.312,1.142l-3.174-0.029l-0.031,3.453l3.174,0.029     c0.663,0.006,1.217,0.506,1.291,1.165c0.212,1.887,0.65,3.579,1.421,5.484c0.247,0.61,0.003,1.308-0.569,1.633l-2.762,1.565     l1.702,3.005l2.762-1.565c0.574-0.325,1.3-0.174,1.696,0.354c1.219,1.625,2.444,2.869,3.971,4.033     c0.528,0.402,0.672,1.135,0.336,1.707l-1.607,2.738l2.979,1.748l1.607-2.738c0.334-0.569,1.039-0.802,1.646-0.542     c1.679,0.717,3.521,1.223,5.477,1.504c0.648,0.093,1.129,0.651,1.125,1.306L847.047,281.653z">
                </path>
            </g>
            <g id="XMLID_8366_">
                <path id="XMLID_8367_" style="fill:var(--navy);"
                    d="M848.779,271.063c-8.505,0-15.424-6.919-15.424-15.424     c0-8.505,6.919-15.424,15.424-15.424c8.505,0,15.424,6.919,15.424,15.424C864.203,264.144,857.284,271.063,848.779,271.063z      M848.779,242.838c-7.059,0-12.801,5.743-12.801,12.801c0,7.059,5.742,12.801,12.801,12.801c7.059,0,12.801-5.742,12.801-12.801     C861.58,248.581,855.838,242.838,848.779,242.838z">
                </path>
            </g>
        </g>
        <g id="XMLID_8356_" style="
    fill:var(--navy);
">
            <g id="XMLID_8361_">
                <path id="XMLID_8362_" style="fill:var(--navy);"
                    d="M812.34,305.412c-0.003,0-0.005,0-0.008,0l-4.145-0.025     c-0.724-0.004-1.308-0.595-1.303-1.319l0.012-1.952c-0.714-0.148-1.407-0.338-2.074-0.566l-0.986,1.681     c-0.367,0.624-1.169,0.834-1.795,0.467l-3.575-2.098c-0.625-0.367-0.834-1.17-0.467-1.795l0.981-1.672     c-0.538-0.474-1.032-0.977-1.51-1.537l-1.69,0.957c-0.63,0.357-1.43,0.136-1.787-0.494l-2.044-3.606     c-0.172-0.303-0.216-0.661-0.123-0.996c0.093-0.335,0.315-0.62,0.617-0.791l1.692-0.958c-0.235-0.701-0.413-1.383-0.544-2.084     l-1.94-0.017c-0.348-0.003-0.68-0.144-0.924-0.393c-0.244-0.248-0.379-0.583-0.376-0.931l0.038-4.145     c0.007-0.724,0.625-1.303,1.323-1.299l1.937,0.018c0.143-0.71,0.331-1.385,0.58-2.077l-1.669-0.986     c-0.623-0.368-0.83-1.173-0.462-1.796l2.108-3.568c0.177-0.299,0.466-0.516,0.802-0.603c0.337-0.087,0.694-0.036,0.994,0.141     l1.672,0.988c0.482-0.542,0.986-1.035,1.539-1.507l-0.953-1.693c-0.171-0.303-0.214-0.661-0.12-0.996     c0.094-0.335,0.317-0.619,0.62-0.789l3.612-2.033c0.303-0.171,0.662-0.214,0.997-0.12c0.335,0.094,0.619,0.317,0.789,0.62     l0.958,1.704c0.622-0.2,1.253-0.366,1.878-0.495v-1.952c0-0.724,0.587-1.311,1.311-1.311h4.145c0.724,0,1.311,0.587,1.311,1.311     v1.948c0.709,0.141,1.399,0.326,2.078,0.557l0.975-1.685c0.363-0.627,1.165-0.841,1.792-0.478l3.588,2.076     c0.301,0.174,0.521,0.461,0.61,0.797c0.09,0.336,0.042,0.694-0.132,0.995l-0.974,1.682c0.551,0.481,1.05,0.98,1.522,1.524     l1.684-0.967c0.628-0.361,1.429-0.144,1.79,0.484l2.065,3.594c0.173,0.302,0.22,0.66,0.129,0.995     c-0.091,0.336-0.311,0.622-0.613,0.795l-1.69,0.971c0.223,0.67,0.406,1.364,0.548,2.079l1.952,0.006     c0.348,0.001,0.681,0.14,0.926,0.387c0.245,0.247,0.382,0.581,0.381,0.928l-0.013,4.145c-0.002,0.724-0.603,1.29-1.315,1.308     l-1.952-0.006c-0.146,0.713-0.333,1.406-0.56,2.076l1.684,0.981c0.626,0.365,0.837,1.167,0.473,1.793l-2.087,3.581     c-0.175,0.3-0.463,0.519-0.799,0.608c-0.336,0.089-0.694,0.04-0.995-0.135l-1.681-0.98c-0.474,0.535-0.981,1.037-1.53,1.513     l0.966,1.692c0.172,0.302,0.218,0.66,0.126,0.996c-0.092,0.336-0.313,0.621-0.615,0.793l-3.6,2.054     c-0.629,0.359-1.43,0.14-1.789-0.489l-0.967-1.694c-0.672,0.22-1.372,0.402-2.079,0.542l-0.012,1.954     c-0.002,0.348-0.142,0.681-0.39,0.925C813.016,305.276,812.685,305.412,812.34,305.412z M809.514,302.772l1.522,0.009l0.01-1.749     c0.004-0.655,0.492-1.207,1.141-1.292c1.219-0.159,2.487-0.487,3.579-0.924c0.225-0.107,0.48-0.15,0.736-0.116     c0.439,0.058,0.81,0.331,1.002,0.71l0.832,1.459l1.322-0.754l-0.867-1.519c-0.326-0.571-0.178-1.296,0.345-1.694     c1.05-0.798,1.898-1.639,2.671-2.646c0.402-0.524,1.131-0.667,1.701-0.335l1.511,0.88l0.766-1.315l-1.511-0.88     c-0.57-0.332-0.804-1.036-0.547-1.644c0.474-1.12,0.805-2.342,0.986-3.634c0.091-0.648,0.645-1.13,1.299-1.13     c0.001,0,0.003,0,0.004,0l1.749,0.005l0.005-1.522l-1.749-0.005c-0.656-0.002-1.209-0.487-1.296-1.137     c-0.174-1.297-0.499-2.522-0.964-3.641c-0.254-0.609-0.015-1.312,0.557-1.641l1.516-0.871l-0.759-1.32l-1.516,0.871     c-0.573,0.329-1.302,0.181-1.7-0.347c-0.776-1.028-1.594-1.847-2.651-2.658c-0.523-0.401-0.667-1.127-0.337-1.698l0.876-1.513     l-1.318-0.762l-0.876,1.513c-0.33,0.571-1.034,0.807-1.641,0.553c-1.161-0.486-2.344-0.804-3.615-0.973     c-0.02-0.002-0.041-0.005-0.061-0.009c-0.663-0.111-1.129-0.701-1.096-1.359v-1.684h-1.522v1.749c0,0.658-0.488,1.215-1.141,1.3     c-1.121,0.147-2.358,0.471-3.481,0.913c-0.61,0.239-1.302-0.007-1.623-0.578l-0.857-1.524l-1.327,0.746l0.857,1.524     c0.324,0.575,0.17,1.301-0.36,1.695c-1.052,0.783-1.88,1.593-2.682,2.626c-0.405,0.521-1.135,0.66-1.703,0.324l-1.505-0.889     l-0.775,1.31l1.505,0.889c0.569,0.336,0.799,1.044,0.536,1.65c-0.542,1.251-0.833,2.296-1.004,3.606     c-0.086,0.658-0.629,1.157-1.312,1.141L793,284.471l-0.014,1.522l1.748,0.016c0.663,0.006,1.217,0.506,1.291,1.165     c0.141,1.249,0.431,2.369,0.942,3.631c0.247,0.61,0.003,1.308-0.569,1.633l-1.521,0.862l0.75,1.324l1.521-0.862     c0.573-0.325,1.3-0.173,1.696,0.354c0.807,1.077,1.618,1.9,2.628,2.67c0.528,0.402,0.672,1.135,0.336,1.707l-0.885,1.508     l1.313,0.77l0.885-1.508c0.335-0.569,1.04-0.802,1.646-0.542c1.112,0.475,2.333,0.81,3.631,0.997     c0.648,0.093,1.129,0.651,1.125,1.306L809.514,302.772z">
                </path>
            </g>
            <g id="XMLID_8357_">
                <path id="XMLID_8358_" style="fill:var(--navy);"
                    d="M810.276,296.379c-6.031,0-10.938-4.907-10.938-10.938     c0-6.031,4.907-10.938,10.938-10.938s10.938,4.907,10.938,10.938C821.214,291.473,816.308,296.379,810.276,296.379z      M810.276,277.126c-4.585,0-8.315,3.73-8.315,8.315c0,4.585,3.73,8.316,8.315,8.316s8.315-3.73,8.315-8.316     C818.592,280.856,814.862,277.126,810.276,277.126z">
                </path>
            </g>
        </g>
        <g id="XMLID_8347_" style="
    fill:var(--navy);
">
            <g id="XMLID_8352_">
                <path id="XMLID_8353_" style="fill:var(--navy);"
                    d="M428.943,339.938c-0.003,0-0.005,0-0.008,0l-4.145-0.025     c-0.348-0.002-0.681-0.142-0.925-0.39c-0.245-0.247-0.381-0.582-0.379-0.93l0.012-1.952c-0.714-0.148-1.407-0.338-2.074-0.566     l-0.986,1.681c-0.176,0.3-0.464,0.518-0.801,0.605c-0.336,0.088-0.694,0.038-0.994-0.138l-3.575-2.098     c-0.625-0.366-0.834-1.17-0.467-1.795l0.981-1.672c-0.538-0.474-1.032-0.977-1.51-1.537l-1.69,0.957     c-0.63,0.357-1.43,0.135-1.787-0.495l-2.044-3.606c-0.357-0.63-0.135-1.43,0.495-1.788l1.691-0.958     c-0.235-0.701-0.413-1.384-0.544-2.084l-1.939-0.018c-0.724-0.007-1.306-0.599-1.3-1.323l0.037-4.145     c0.003-0.348,0.144-0.68,0.392-0.924c0.248-0.244,0.577-0.379,0.931-0.376l1.937,0.018c0.143-0.71,0.331-1.385,0.58-2.077     l-1.669-0.986c-0.299-0.177-0.516-0.465-0.603-0.802c-0.087-0.337-0.036-0.694,0.141-0.994l2.109-3.569     c0.177-0.299,0.466-0.516,0.802-0.603c0.336-0.087,0.694-0.036,0.994,0.141l1.673,0.988c0.482-0.543,0.986-1.036,1.539-1.507     l-0.953-1.693c-0.171-0.303-0.214-0.662-0.12-0.996c0.094-0.335,0.317-0.619,0.62-0.79l3.613-2.033     c0.303-0.171,0.662-0.214,0.997-0.12c0.335,0.094,0.619,0.317,0.789,0.62l0.958,1.703c0.622-0.2,1.253-0.366,1.878-0.495v-1.952     c0-0.724,0.587-1.311,1.311-1.311h4.145c0.724,0,1.311,0.587,1.311,1.311v1.948c0.709,0.141,1.399,0.326,2.078,0.557l0.975-1.685     c0.363-0.627,1.164-0.841,1.792-0.478l3.587,2.076c0.627,0.363,0.841,1.165,0.478,1.792l-0.974,1.683     c0.551,0.481,1.05,0.98,1.522,1.524l1.684-0.967c0.301-0.173,0.659-0.22,0.995-0.129c0.336,0.091,0.622,0.311,0.795,0.613     l2.065,3.594c0.361,0.628,0.144,1.43-0.484,1.79l-1.689,0.971c0.223,0.669,0.406,1.364,0.548,2.079l1.952,0.006     c0.724,0.002,1.31,0.591,1.308,1.315l-0.012,4.145c-0.001,0.348-0.14,0.681-0.387,0.926c-0.247,0.245-0.581,0.379-0.929,0.381     l-1.952-0.006c-0.146,0.713-0.333,1.406-0.56,2.075l1.684,0.981c0.301,0.175,0.519,0.462,0.608,0.799     c0.089,0.336,0.04,0.694-0.135,0.995l-2.087,3.581c-0.365,0.625-1.167,0.837-1.793,0.473l-1.681-0.98     c-0.474,0.535-0.981,1.037-1.53,1.513l0.966,1.692c0.172,0.302,0.218,0.66,0.126,0.996c-0.092,0.335-0.313,0.621-0.615,0.793     l-3.6,2.054c-0.302,0.172-0.66,0.217-0.996,0.126c-0.335-0.092-0.621-0.313-0.793-0.615l-0.967-1.694     c-0.673,0.22-1.372,0.402-2.079,0.541l-0.012,1.954C430.25,339.356,429.664,339.938,428.943,339.938z M426.118,337.298     l1.522,0.009l0.01-1.749c0.004-0.655,0.491-1.207,1.141-1.292c1.22-0.16,2.488-0.487,3.58-0.925     c0.227-0.108,0.484-0.151,0.743-0.115c0.435,0.061,0.801,0.332,0.992,0.707l0.833,1.461l1.322-0.754l-0.867-1.518     c-0.326-0.571-0.178-1.296,0.345-1.694c1.05-0.798,1.898-1.639,2.671-2.646c0.402-0.524,1.131-0.667,1.701-0.335l1.511,0.88     l0.766-1.315l-1.511-0.88c-0.57-0.332-0.805-1.036-0.547-1.644c0.474-1.12,0.805-2.342,0.986-3.634     c0.091-0.648,0.645-1.13,1.299-1.13c0.001,0,0.003,0,0.004,0l1.749,0.005l0.005-1.522l-1.748-0.005     c-0.655-0.002-1.208-0.487-1.296-1.137c-0.175-1.299-0.499-2.523-0.964-3.641c-0.254-0.609-0.015-1.312,0.557-1.641l1.516-0.871     l-0.758-1.32l-1.516,0.871c-0.573,0.329-1.302,0.181-1.7-0.347c-0.776-1.028-1.594-1.847-2.651-2.658     c-0.523-0.401-0.667-1.127-0.337-1.697l0.876-1.514l-1.317-0.762l-0.876,1.513c-0.33,0.571-1.032,0.807-1.641,0.553     c-1.161-0.486-2.344-0.804-3.615-0.972c-0.02-0.002-0.041-0.005-0.061-0.009c-0.663-0.111-1.129-0.701-1.096-1.359v-1.683h-1.522     v1.73c0.002,0.118-0.013,0.234-0.041,0.344c-0.063,0.245-0.194,0.462-0.373,0.63c-0.078,0.073-0.165,0.137-0.26,0.19     c-0.148,0.082-0.314,0.137-0.49,0.157c-1.116,0.149-2.342,0.472-3.458,0.91c-0.61,0.24-1.302-0.007-1.623-0.577l-0.857-1.524     l-1.327,0.746l0.858,1.524c0.324,0.575,0.17,1.301-0.36,1.695c-1.052,0.783-1.88,1.593-2.682,2.626     c-0.406,0.521-1.135,0.66-1.703,0.324l-1.505-0.89l-0.774,1.31l1.505,0.889c0.569,0.336,0.799,1.044,0.536,1.65     c-0.542,1.251-0.833,2.296-1.004,3.605c-0.086,0.658-0.643,1.15-1.312,1.142l-1.749-0.016l-0.014,1.522l1.748,0.016     c0.663,0.006,1.217,0.506,1.291,1.165c0.14,1.248,0.431,2.368,0.941,3.631c0.247,0.61,0.003,1.309-0.569,1.633l-1.521,0.862     l0.75,1.324l1.522-0.862c0.574-0.325,1.3-0.173,1.695,0.354c0.808,1.077,1.618,1.9,2.628,2.67     c0.528,0.402,0.672,1.135,0.336,1.707l-0.885,1.508l1.313,0.77l0.885-1.508c0.334-0.57,1.039-0.801,1.646-0.542     c1.112,0.475,2.334,0.811,3.632,0.997c0.649,0.093,1.129,0.651,1.125,1.306L426.118,337.298z">
                </path>
            </g>
            <g id="XMLID_8348_">
                <path id="XMLID_8349_" style="fill:var(--navy);"
                    d="M426.88,330.905c-6.031,0-10.938-4.907-10.938-10.938     c0-6.031,4.907-10.938,10.938-10.938c6.031,0,10.938,4.907,10.938,10.938C437.818,325.999,432.911,330.905,426.88,330.905z      M426.88,311.652c-4.585,0-8.316,3.73-8.316,8.316c0,4.585,3.73,8.315,8.316,8.315c4.585,0,8.315-3.73,8.315-8.315     C435.196,315.382,431.465,311.652,426.88,311.652z">
                </path>
            </g>
        </g>


    </g>
</svg>
